<mxfile host="app.diagrams.net" modified="2020-08-21T10:17:37.673Z" agent="5.0 (Windows NT 10.0; WOW64) AppleWebKit/537.36 (KHTML, like Gecko) Chrome/78.0.3904.108 Safari/537.36" etag="GiDk6aNzTV5D-BI-YHTx" version="13.6.4" type="github">
  <diagram id="r-Dt161kVquh38u9GyQG" name="Page-1">
    <mxGraphModel dx="1424" dy="738" grid="1" gridSize="10" guides="1" tooltips="1" connect="1" arrows="1" fold="1" page="1" pageScale="1" pageWidth="827" pageHeight="1169" math="0" shadow="0">
      <root>
        <mxCell id="0" />
        <mxCell id="1" parent="0" />
        <mxCell id="vE5JYE0Z18ffQTh6WR9X-7" style="rounded=0;orthogonalLoop=1;jettySize=auto;html=1;exitX=0.5;exitY=1;exitDx=0;exitDy=0;entryX=0.5;entryY=0;entryDx=0;entryDy=0;" edge="1" parent="1" source="vE5JYE0Z18ffQTh6WR9X-1" target="vE5JYE0Z18ffQTh6WR9X-2">
          <mxGeometry relative="1" as="geometry" />
        </mxCell>
        <mxCell id="vE5JYE0Z18ffQTh6WR9X-1" value="VMI" style="rounded=1;whiteSpace=wrap;html=1;" vertex="1" parent="1">
          <mxGeometry x="50" y="40" width="120" height="60" as="geometry" />
        </mxCell>
        <mxCell id="vE5JYE0Z18ffQTh6WR9X-8" value="通知GOMS出MT（VOL）" style="edgeStyle=none;rounded=0;orthogonalLoop=1;jettySize=auto;html=1;exitX=0.5;exitY=1;exitDx=0;exitDy=0;entryX=0.5;entryY=0;entryDx=0;entryDy=0;" edge="1" parent="1" source="vE5JYE0Z18ffQTh6WR9X-2" target="vE5JYE0Z18ffQTh6WR9X-4">
          <mxGeometry relative="1" as="geometry" />
        </mxCell>
        <mxCell id="vE5JYE0Z18ffQTh6WR9X-9" style="edgeStyle=none;rounded=0;orthogonalLoop=1;jettySize=auto;html=1;exitX=1;exitY=0.5;exitDx=0;exitDy=0;entryX=0;entryY=0.5;entryDx=0;entryDy=0;" edge="1" parent="1" source="vE5JYE0Z18ffQTh6WR9X-2" target="vE5JYE0Z18ffQTh6WR9X-3">
          <mxGeometry relative="1" as="geometry" />
        </mxCell>
        <mxCell id="vE5JYE0Z18ffQTh6WR9X-14" value="快递配送（在途）" style="edgeLabel;html=1;align=center;verticalAlign=middle;resizable=0;points=[];" vertex="1" connectable="0" parent="vE5JYE0Z18ffQTh6WR9X-9">
          <mxGeometry x="-0.1818" y="2" relative="1" as="geometry">
            <mxPoint as="offset" />
          </mxGeometry>
        </mxCell>
        <mxCell id="vE5JYE0Z18ffQTh6WR9X-2" value="KMS(A店)" style="rounded=1;whiteSpace=wrap;html=1;" vertex="1" parent="1">
          <mxGeometry x="50" y="190" width="120" height="60" as="geometry" />
        </mxCell>
        <mxCell id="vE5JYE0Z18ffQTh6WR9X-3" value="KMS(B店)" style="rounded=1;whiteSpace=wrap;html=1;" vertex="1" parent="1">
          <mxGeometry x="390" y="190" width="120" height="60" as="geometry" />
        </mxCell>
        <mxCell id="vE5JYE0Z18ffQTh6WR9X-10" value="MT: A店 -&amp;gt; B店（VOL）" style="edgeStyle=none;rounded=0;orthogonalLoop=1;jettySize=auto;html=1;exitX=1;exitY=0.5;exitDx=0;exitDy=0;entryX=0;entryY=0.5;entryDx=0;entryDy=0;" edge="1" parent="1" source="vE5JYE0Z18ffQTh6WR9X-4" target="vE5JYE0Z18ffQTh6WR9X-5">
          <mxGeometry relative="1" as="geometry" />
        </mxCell>
        <mxCell id="vE5JYE0Z18ffQTh6WR9X-4" value="GOMS" style="rounded=1;whiteSpace=wrap;html=1;" vertex="1" parent="1">
          <mxGeometry x="50" y="390" width="120" height="60" as="geometry" />
        </mxCell>
        <mxCell id="vE5JYE0Z18ffQTh6WR9X-11" value="PB(在途)" style="edgeStyle=none;rounded=0;orthogonalLoop=1;jettySize=auto;html=1;exitX=1;exitY=0.25;exitDx=0;exitDy=0;entryX=0;entryY=0.25;entryDx=0;entryDy=0;" edge="1" parent="1" source="vE5JYE0Z18ffQTh6WR9X-5" target="vE5JYE0Z18ffQTh6WR9X-6">
          <mxGeometry relative="1" as="geometry" />
        </mxCell>
        <mxCell id="vE5JYE0Z18ffQTh6WR9X-13" value="KMS 扣B店库存（OSL）" style="edgeStyle=none;rounded=0;orthogonalLoop=1;jettySize=auto;html=1;exitX=0.5;exitY=0;exitDx=0;exitDy=0;entryX=0.5;entryY=1;entryDx=0;entryDy=0;" edge="1" parent="1" source="vE5JYE0Z18ffQTh6WR9X-5" target="vE5JYE0Z18ffQTh6WR9X-3">
          <mxGeometry relative="1" as="geometry" />
        </mxCell>
        <mxCell id="vE5JYE0Z18ffQTh6WR9X-5" value="RMS" style="rounded=1;whiteSpace=wrap;html=1;" vertex="1" parent="1">
          <mxGeometry x="390" y="390" width="120" height="60" as="geometry" />
        </mxCell>
        <mxCell id="vE5JYE0Z18ffQTh6WR9X-12" value="MT收货（OSL）" style="edgeStyle=none;rounded=0;orthogonalLoop=1;jettySize=auto;html=1;exitX=0;exitY=0.75;exitDx=0;exitDy=0;entryX=1;entryY=0.75;entryDx=0;entryDy=0;" edge="1" parent="1" source="vE5JYE0Z18ffQTh6WR9X-6" target="vE5JYE0Z18ffQTh6WR9X-5">
          <mxGeometry relative="1" as="geometry" />
        </mxCell>
        <mxCell id="vE5JYE0Z18ffQTh6WR9X-6" value="RSIM" style="rounded=1;whiteSpace=wrap;html=1;" vertex="1" parent="1">
          <mxGeometry x="680" y="390" width="120" height="60" as="geometry" />
        </mxCell>
      </root>
    </mxGraphModel>
  </diagram>
</mxfile>
